<svg xmlns="http://www.w3.org/2000/svg" width="253" height="28" viewBox="0 0 253 28">
  <path fill="#fff" d="M71.78 13.98c0-4.3 2.7-7.48 7.88-7.48 5.2 0 7.89 3.19 7.89 7.48 0 4.31-2.7 7.52-7.9 7.52-5.18 0-7.87-3.2-7.87-7.52Zm3.7 0c0 2.67 1.49 4.31 4.18 4.31 2.7 0 4.17-1.64 4.17-4.3 0-2.63-1.46-4.28-4.17-4.28-2.7 0-4.17 1.65-4.17 4.27Zm51.73-1.23-3.32-.37c-1.94-.21-2.42-.7-2.42-1.36 0-.73 1-1.38 2.94-1.38 1.87 0 2.85.69 3.03 1.74H131c-.18-3.01-2.7-4.88-6.4-4.88-4.38 0-6.59 1.75-6.59 4.83 0 2.5 1.46 3.69 4.5 4l3.36.36c1.28.14 1.87.64 1.87 1.29 0 .73-.85 1.38-2.92 1.38-2.39 0-3.35-.6-3.51-1.81h-3.5c.17 3.28 2.3 4.95 6.88 4.95 4.19 0 6.52-1.83 6.52-4.6 0-2.4-1.39-3.84-4-4.15Zm19-5.86h-4.33l-5.18 5.8v-5.8h-3.63l.01 14.25h3.62v-5.41l4.92 5.41h4.6l-6.63-7.03 6.62-7.22Zm-30 14.25h-11.47V6.9h11.47v3.08h-7.84v2.4h6.31v3.1h-6.3v2.6h7.83v3.07ZM96.2 6.9h-6.66v14.25h6.66c5.11 0 6.52-1.9 6.52-7.23 0-5-1.35-7.02-6.52-7.02Zm-.15 11.17h-2.89v-8.1h2.9c2.27 0 2.95.63 2.95 3.94 0 3.03-.76 4.15-2.96 4.15Zm-37.67-8.1h4.6v11.17h3.64V9.97h4.57V6.9H58.4v3.08Zm-8.37 8.32c1.94 0 3.08-.74 3.08-2.6V6.9h3.64v9.21c0 4.12-3.65 5.4-6.72 5.4-3.08 0-6.75-1.28-6.75-5.4V6.9h3.63v8.8c0 1.81 1.23 2.6 3.12 2.6ZM32.62 6.9l-5.47 14.25h3.76l.96-2.67h6.1l.94 2.67h3.89L37.26 6.9h-4.64Zm.33 8.55 2-5.58 1.96 5.58h-3.96Zm-20.08-2.23L.11 21.15H0V14.8l12.73-7.9h7.6a.49.49 0 0 1 .51.48v13.77h-7.96v-2.37c0-.37.15-.86.55-1.1l6.27-3.76a.34.34 0 0 0 .18-.33.39.39 0 0 0-.38-.38h-6.63Zm147.92.58c1.22.14 2.8.94 2.8 2.9v.86c0 2.08-1.94 3.44-5.2 3.44h-3.72V7h3.86c2.76 0 4.62 1.19 4.62 3.34v.88c0 1.52-1.14 2.4-2.38 2.58h.02Zm-2.22-5.61h-2.38v5.15h2.96c1.5 0 2.5-.8 2.5-2.14v-.78c0-1.51-1.26-2.23-3.08-2.23Zm3.52 9.31v-.8c0-1.4-1.18-2.18-2.86-2.18h-3.04v5.3h2.24c2.36 0 3.66-.8 3.66-2.32Zm9.35-7.22c.54 0 .9.1 1.16.18l-.26 1.4c-.2-.06-.44-.08-.72-.08-1.32 0-2.4.66-2.98 2.56V21h-1.48V10.46h1.12l.24 1.9c.62-1.5 1.8-2.08 2.92-2.08Zm6.81-.06c2.54 0 3.74 1.38 3.74 3.54V21h-1.22l-.1-1.24a4.4 4.4 0 0 1-3.46 1.48c-1.8 0-3.4-1.1-3.4-2.94v-.66c0-1.82 1.64-3.04 4.26-3.04h2.44v-.88c0-1.54-.76-2.3-2.36-2.3-1.24 0-2.16.32-3.18.84l-.48-1a7.3 7.3 0 0 1 3.76-1.04Zm-.8 9.86a3.7 3.7 0 0 0 3.06-1.48v-2.94h-2.34c-1.82 0-2.88.72-2.88 2.1v.44c0 1.14.84 1.88 2.16 1.88Zm13.27-9.86c1.98 0 3.38 1.24 3.38 3.52V21h-1.48v-7.14c0-1.7-.84-2.44-2.22-2.44-1.32 0-2.3.7-3.02 1.86V21h-1.48V10.46h1.26l.12 1.4a4.08 4.08 0 0 1 3.44-1.64Zm13.68-4.01h1.48V21h-1.2l-.16-1.34a3.73 3.73 0 0 1-3.14 1.58c-2.52 0-4.14-2.06-4.14-4.98v-1.02c0-2.78 1.6-5.02 4.24-5.02 1.2 0 2.14.38 2.92 1.18V6.2Zm-2.82 13.85c1.28 0 2.12-.62 2.82-1.68V12.7a3.3 3.3 0 0 0-2.72-1.28c-1.92 0-2.96 1.58-2.96 3.78v1.1c0 2.36 1.06 3.76 2.86 3.76Zm24.06-13.05V21h-1.5v-6.64h-6.96V21h-1.5V7h1.5v6.1h6.96V7h1.5Zm11.04 3.45h1.47V21h-1.25l-.13-1.48a4.36 4.36 0 0 1-3.47 1.72c-1.88 0-3.32-1.24-3.32-3.18v-7.6h1.48V18c0 1.3.78 2.06 2.12 2.06 1.26 0 2.35-.72 3.1-1.88v-7.72Zm10.22-.24c2.44 0 3.98 2 3.98 4.96v1.04c0 2.84-1.84 5.02-4.3 5.02-1.24 0-2.2-.48-2.96-1.28l-.14 1.04h-1.2V6.2h1.48v5.4a3.94 3.94 0 0 1 3.14-1.38Zm2.5 6.04v-1.1c0-2.4-.98-3.74-2.72-3.74-1.28 0-2.24.6-2.92 1.56v5.82a3.3 3.3 0 0 0 2.64 1.26c1.78 0 3-1.46 3-3.8Z"/>
</svg>