<?xml version="1.0" encoding="utf-8"?>
<!-- Generator: Adobe Illustrator 22.0.1, SVG Export Plug-In . SVG Version: 6.00 Build 0)  -->
<svg version="1.1" id="Layer_1" xmlns="http://www.w3.org/2000/svg" xmlns:xlink="http://www.w3.org/1999/xlink" x="0px" y="0px"
	 viewBox="0 0 54 54" style="enable-background:new 0 0 54 54;" xml:space="preserve">
<style type="text/css">
	.st0{fill:#808080;}
</style>
<g>
	<g>
		<path class="st0" d="M43.6,31.5c0.4-0.2,4.9-1.6,3.9-4.3c-0.7-1.9-2.1,0.4-3.1-0.4c-0.3-0.2-0.5-0.4,0.9-1.8
			c1.4-1.3,1.8-2.3,1.9-3.1c0.1-0.8,0.1-1.5-0.4-1.8c-0.6-0.3-1.3,0.5-1.5-0.3c-0.1-0.5,0-0.7,0-1.6c0-0.9-0.9-3.2-3.1-2.4
			c-1.4,0.5-0.7,2.9-1,3.4c-0.4,0.5-0.7-1-1.5-1.2c-0.9-0.3-1.6,0.6-1.5,1.4c0,0.8,0.5,2.2,0.7,2.8c0.1,0.4,0.3,1.7,0.2,2
			c-0.2,0.5-0.4,0.4-1-0.3c-0.5-0.6-0.2-0.4-1-1.3c-1-1.2-1.6,0.5-1.7,1.6c-0.1,1.2,0.8,5.2,0.8,5.7c-0.1,2.4-1.4-0.4-1.4-0.4
			c-0.9-1.3-2.6-0.7-2,0.7c1,2.6,1.8,4.9,0.9,7.1c-0.1,0.3-0.3,0.8-0.5,1.3c7.4-6.9,9.5-16.5,9.5-16.5c0-0.1,0.2-0.2,0.3-0.2
			s0.1,0.2,0.1,0.3c0,0-2.4,14.2-15.4,21.5c-0.3,0.2-0.3,0-0.4-0.3c0.1-2.3,0.2-3.8,1-4.3c7-4.1,4.7-6,3.3-6.3
			c-1.4-0.3-2.3-2.6-0.3-3.7c3.5-2,5.3-9,0.9-7.5c-0.4,0-3.3,1.5-0.7-2.8c2.4-4.3,1.7-8.2-0.8-6.5c-0.7,0.4-2.5,2.4-2.1-0.4
			C29,7.8,27.9,6.3,26.7,6c0,0-0.1,0-0.2,0h-0.1l0,0C26.2,6,26,6,26,6c-1.3,0.3-2.3,1.8-1.7,6.1c0.4,2.8-1.5,0.9-2.1,0.4
			c-2.5-1.7-3.2,2.2-0.8,6.5c2.5,4.3-0.3,2.8-0.7,2.8c-4.4-1.5-2.6,5.5,0.9,7.5c2,1,1.2,3.4-0.3,3.7c-1.4,0.3-3.7,2.2,3.3,6.3
			c0.8,0.5,0.9,2,1,4.3c-0.1,0.2-0.1,0.4-0.4,0.3c-13-7.3-15.4-21.5-15.4-21.5c0-0.1,0-0.3,0.1-0.3c0.1,0,0.2,0.1,0.3,0.2
			c0,0,2,9.5,9.5,16.4c-0.2-0.5-0.4-1-0.5-1.3c-0.9-2.2,0-4.5,0.9-7.1c0.5-1.4-1.2-2.1-2-0.7c0,0.1-1.4,2.8-1.4,0.4
			c0-0.5,0.9-4.5,0.8-5.7c-0.1-1.2-0.7-2.9-1.7-1.6c-0.8,1-0.6,0.7-1,1.3c-0.5,0.7-0.7,0.9-1,0.3c-0.2-0.4,0.1-1.6,0.2-2
			c0.2-0.6,0.7-2,0.7-2.8c0-0.8-0.6-1.6-1.5-1.4c-0.8,0.2-1.1,1.7-1.5,1.2s0.4-2.9-1-3.4c-2.2-0.8-3.1,1.5-3.1,2.4
			c0,0.8,0.2,1.1,0,1.6c-0.2,0.9-1,0-1.5,0.3c-0.6,0.3-0.6,0.9-0.4,1.8c0.1,0.8,0.6,1.8,1.9,3.1c1.4,1.3,1.2,1.5,0.9,1.8
			c-1,0.7-2.4-1.5-3.1,0.4c-1,2.7,3.5,4.1,3.9,4.3c1,0.5,1.5,1.5,0.2,1.2c-0.5-0.1-1.4-0.5-2,0.2c-1.7,1.9,2.7,5.2,5.6,5.8
			s5.6,1.7,6.7,2.2c1.1,0.5,5.7,3.7,6.1,5c0.1,0.4,0.3,0.7,0.7,0.7c0.4,0,0.6-0.2,0.7-0.6c0.3-1.3,5-4.5,6.1-5s3.7-1.6,6.7-2.2
			c2.9-0.6,7.3-3.9,5.6-5.8c-0.6-0.7-1.5-0.3-2-0.2C42.1,33.1,42.6,32,43.6,31.5z M26.6,45c0,0,0,0.3-0.2,0.3S26.2,45,26.2,45
			S26,35.9,26,29.6c0-6.2,0.2-13,0.2-13s0.1-0.3,0.2-0.3c0.2,0,0.2,0.3,0.2,0.3s0.2,6.8,0.2,13C26.7,35.9,26.6,45,26.6,45z"/>
	</g>
</g>
</svg>
